<svg width="114" height="29" viewBox="0 0 114 29" fill="none" xmlns="http://www.w3.org/2000/svg">
<g filter="url(#filter0_f_266_622)">
<path d="M103.7 9.44908C104.92 9.44909 105.977 9.71555 106.87 10.2482C107.781 10.7808 108.477 11.5284 108.958 12.4905C109.456 13.4525 109.705 14.5862 109.705 15.8917C109.705 16.0635 109.696 16.2273 109.679 16.382C109.679 16.5364 109.663 16.708 109.628 16.8967H99.3735C99.4759 18.1409 99.8611 19.1632 100.53 19.9636C101.338 20.8914 102.412 21.3559 103.752 21.3559C104.594 21.3558 105.333 21.1753 105.968 20.8147C106.604 20.4367 107.067 19.9037 107.359 19.2165H109.318C108.889 20.4192 108.167 21.3731 107.154 22.0775C106.157 22.7646 104.988 23.108 103.648 23.108C102.394 23.1079 101.287 22.8155 100.325 22.2314C99.3624 21.6301 98.6066 20.8141 98.0568 19.7832C97.507 18.7524 97.2312 17.5671 97.2312 16.2271C97.2312 14.887 97.4977 13.71 98.0303 12.6964C98.5801 11.6655 99.3453 10.8661 100.325 10.2991C101.304 9.73234 102.429 9.44908 103.7 9.44908ZM93.5152 9.70694H97.4322V11.459H93.5152V19.191C93.5153 19.9297 93.704 20.4711 94.0819 20.8147C94.4599 21.1582 95.079 21.3294 95.938 21.3294C96.2813 21.3294 96.5731 21.3127 96.8135 21.2784C97.0712 21.2269 97.2776 21.1667 97.4322 21.098V22.8501C97.2604 22.9188 97.0114 22.9707 96.6851 23.005C96.3758 23.0566 96.0233 23.0825 95.6281 23.0825C94.1679 23.0825 93.1029 22.7558 92.4328 22.103C91.7799 21.4329 91.4533 20.4707 91.4533 19.2165V11.459H88.7472V9.70694H91.4533V6.64004L93.5152 5.86645V9.70694ZM103.7 11.2012C102.395 11.2012 101.338 11.6566 100.53 12.567C99.927 13.2492 99.5544 14.1173 99.4118 15.1701H107.647C107.529 14.0472 107.193 13.1542 106.638 12.4905C105.951 11.6314 104.972 11.2012 103.7 11.2012Z" fill="url(#paint0_linear_266_622)"/>
</g>
<path d="M86.5945 22.85C86.5258 22.5579 86.4742 22.2228 86.4399 21.8449C86.4227 21.4669 86.4141 20.9858 86.4141 20.4016H86.2852V14.1133C86.2852 13.1168 86.0533 12.3866 85.5894 11.9227C85.1427 11.4417 84.4125 11.2011 83.3988 11.2011C82.4023 11.2011 81.6034 11.4073 81.002 11.8197C80.4179 12.2148 80.0914 12.7818 80.0227 13.5206H78.0383C78.1242 12.2492 78.6568 11.2527 79.6361 10.5311C80.6155 9.80946 81.8955 9.44866 83.4761 9.44866C85.1083 9.44866 86.3196 9.83523 87.1099 10.6084C87.9003 11.3815 88.2954 12.5413 88.2954 14.0876V20.4016C88.2954 20.7796 88.3212 21.1748 88.3728 21.5871C88.4243 21.9823 88.493 22.4032 88.5789 22.85H86.5945ZM82.0845 23.1077C80.7271 23.1077 79.6447 22.7812 78.8372 22.1283C78.0469 21.4583 77.6517 20.5477 77.6517 19.3965C77.6517 18.2454 78.0469 17.352 78.8372 16.7163C79.6275 16.0806 80.7787 15.6339 82.2906 15.3762L86.878 14.603V16.3039L82.5999 16.974C81.6377 17.1286 80.9075 17.3863 80.4093 17.7472C79.911 18.108 79.6619 18.632 79.6619 19.3192C79.6619 19.9893 79.8853 20.4961 80.332 20.8398C80.7959 21.1834 81.4745 21.3552 82.3679 21.3552C83.5191 21.3552 84.4554 21.0975 85.1771 20.582C85.9158 20.0494 86.2852 19.3622 86.2852 18.5203L86.6203 20.3501C86.3454 21.2263 85.8042 21.905 84.9967 22.3861C84.2063 22.8671 83.2356 23.1077 82.0845 23.1077Z" fill="white"/>
<path d="M69.6768 28.3903C68.1133 28.3903 66.8075 28.0209 65.7595 27.2821C64.7286 26.5605 64.1015 25.5983 63.8781 24.3957H65.8368C66.0258 25.0829 66.4467 25.6241 67.0996 26.0193C67.7697 26.4316 68.6717 26.6378 69.8056 26.6378C71.1458 26.6378 72.1594 26.2684 72.8467 25.5296C73.5339 24.808 73.8776 23.7428 73.8776 22.3339V19.5248L74.1353 19.5763C73.8432 20.5729 73.259 21.3718 72.3828 21.9731C71.5066 22.5573 70.4671 22.8494 69.2644 22.8494C68.1133 22.8494 67.0996 22.5745 66.2234 22.0247C65.3471 21.4577 64.6685 20.6759 64.1874 19.6794C63.7063 18.6829 63.4658 17.5232 63.4658 16.2002C63.4658 14.8601 63.7149 13.6832 64.2132 12.6695C64.7114 11.6558 65.4073 10.8741 66.3007 10.3243C67.2113 9.75731 68.2679 9.47382 69.4706 9.47382C70.7076 9.47382 71.7385 9.77449 72.5632 10.3758C73.4051 10.9772 73.9635 11.8362 74.2384 12.953L74.0064 12.9788V9.70577H75.9393V22.3339C75.9393 24.2067 75.3809 25.6842 74.2641 26.7667C73.1474 27.8491 71.6182 28.3903 69.6768 28.3903ZM69.7799 21.0711C71.0684 21.0711 72.0907 20.6244 72.8467 19.731C73.6027 18.8376 73.9807 17.6263 73.9807 16.0972C73.9807 14.6024 73.6027 13.4255 72.8467 12.5664C72.0907 11.6902 71.0684 11.2521 69.7799 11.2521C68.4741 11.2521 67.4432 11.6902 66.6873 12.5664C65.9485 13.4427 65.5791 14.6454 65.5791 16.1745C65.5791 17.6692 65.9571 18.8633 66.713 19.7567C67.469 20.633 68.4913 21.0711 69.7799 21.0711Z" fill="white"/>
<path d="M56.8567 23.0819C55.6197 23.0819 54.5802 22.7812 53.7384 22.1799C52.8965 21.5786 52.3209 20.7281 52.0117 19.6285L52.424 19.5769V28.1332H50.3623V9.70637H52.2951V12.7732L52.0117 12.6959C52.3381 11.6822 52.9566 10.8919 53.8672 10.3249C54.7778 9.74073 55.8345 9.44866 57.0371 9.44866C58.2055 9.44866 59.2191 9.73214 60.0782 10.2991C60.9544 10.8661 61.6331 11.6564 62.1142 12.6701C62.5952 13.6838 62.8358 14.8693 62.8358 16.2266C62.8358 17.6011 62.5867 18.8038 62.0884 19.8347C61.5902 20.8655 60.8943 21.6645 60.0009 22.2314C59.1075 22.7984 58.0594 23.0819 56.8567 23.0819ZM56.5475 21.2779C57.8532 21.2779 58.8755 20.8312 59.6143 19.9378C60.3531 19.0272 60.7225 17.7901 60.7225 16.2266C60.7225 14.6803 60.3531 13.469 59.6143 12.5928C58.8755 11.6994 57.8532 11.2527 56.5475 11.2527C55.2417 11.2527 54.2108 11.708 53.4549 12.6186C52.6989 13.512 52.3209 14.7405 52.3209 16.3039C52.3209 17.8331 52.6989 19.0443 53.4549 19.9378C54.2108 20.8312 55.2417 21.2779 56.5475 21.2779Z" fill="white"/>
<path d="M42.2442 22.85V9.70637H44.177V13.0567H44.3059V22.85H42.2442ZM44.3059 15.9947L43.9709 12.8763C44.2801 11.7595 44.8299 10.9091 45.6203 10.3249C46.4106 9.74073 47.3212 9.44866 48.3521 9.44866C48.7816 9.44866 49.0737 9.48302 49.2283 9.55174V11.5362C49.1424 11.5018 49.0221 11.4846 48.8675 11.4846C48.7129 11.4674 48.5239 11.4589 48.3005 11.4589C46.9948 11.4589 45.9982 11.854 45.311 12.6443C44.6409 13.4175 44.3059 14.5343 44.3059 15.9947Z" fill="white"/>
<g filter="url(#filter1_f_266_622)">
<path d="M34.9967 9.44961C36.6289 9.44961 37.8409 9.83635 38.6313 10.6095C39.4213 11.3826 39.8166 12.5422 39.8166 14.0882V20.4024C39.8166 20.7803 39.8426 21.1755 39.8941 21.5878C39.9456 21.9829 40.0141 22.404 40.1 22.8506H38.1155C38.0468 22.5586 37.995 22.2235 37.9606 21.8457C37.9482 21.5722 37.9415 21.2447 37.9381 20.8632C37.6327 21.496 37.1598 22.0042 36.5174 22.3869C35.7271 22.8679 34.7565 23.1085 33.6054 23.1085C32.2481 23.1085 31.1656 22.7819 30.3581 22.129C29.5679 21.459 29.1727 20.5485 29.1727 19.3974C29.1727 18.2463 29.5678 17.3525 30.3581 16.7168C31.1484 16.0812 32.2996 15.6352 33.8113 15.3775L37.8057 14.7039V14.1147C37.8057 13.1182 37.5744 12.3872 37.1106 11.9233C36.6639 11.4424 35.9336 11.2018 34.9202 11.2017C33.9237 11.2017 33.1243 11.4081 32.523 11.8204C31.9388 12.2155 31.6122 12.7827 31.5435 13.5215H29.559C29.6449 12.2501 30.1778 11.2536 31.1572 10.532C32.1364 9.81052 33.4162 9.44966 34.9967 9.44961ZM11.186 20.7534L15.8148 4.29529H18.3925L23.0448 20.7524L27.7471 4.29529H29.7835L24.2939 22.8506H21.7172L17.0512 6.76018L12.3616 22.8506H9.78493L4.29529 4.29529H6.46016L11.186 20.7534ZM34.1211 16.9747C33.159 17.1293 32.428 17.3875 31.9298 17.7483C31.4318 18.109 31.1827 18.633 31.1827 19.32C31.1827 19.99 31.4066 20.4971 31.8533 20.8407C32.3172 21.1842 32.9955 21.3564 33.8887 21.3564C35.0399 21.3564 35.9762 21.0982 36.6978 20.5828C37.4366 20.0502 37.8057 19.3628 37.8057 18.5209V16.3972L34.1211 16.9747Z" fill="url(#paint1_linear_266_622)"/>
</g>
<defs>
<filter id="filter0_f_266_622" x="84.4519" y="1.57116" width="29.5481" height="25.8321" filterUnits="userSpaceOnUse" color-interpolation-filters="sRGB">
<feFlood flood-opacity="0" result="BackgroundImageFix"/>
<feBlend mode="normal" in="SourceGraphic" in2="BackgroundImageFix" result="shape"/>
<feGaussianBlur stdDeviation="2.13909" result="effect1_foregroundBlur_266_622"/>
</filter>
<filter id="filter1_f_266_622" x="9.57488e-07" y="0" width="44.3953" height="27.4038" filterUnits="userSpaceOnUse" color-interpolation-filters="sRGB">
<feFlood flood-opacity="0" result="BackgroundImageFix"/>
<feBlend mode="normal" in="SourceGraphic" in2="BackgroundImageFix" result="shape"/>
<feGaussianBlur stdDeviation="2.13909" result="effect1_foregroundBlur_266_622"/>
</filter>
<linearGradient id="paint0_linear_266_622" x1="117.671" y1="14.4872" x2="88.7472" y2="14.4872" gradientUnits="userSpaceOnUse">
<stop stop-color="#86C4F7"/>
<stop offset="1" stop-color="white"/>
</linearGradient>
<linearGradient id="paint1_linear_266_622" x1="44.5001" y1="13.7019" x2="-6.15703" y2="13.7019" gradientUnits="userSpaceOnUse">
<stop stop-color="white"/>
<stop offset="1" stop-color="#86C4F7"/>
</linearGradient>
</defs>
</svg>
